<svg width="45" height="45" viewBox="0 0 45 45" fill="none" xmlns="http://www.w3.org/2000/svg">
<path d="M39.671 39.6587C39.6598 38.5879 39.2244 37.5653 38.4602 36.8151C37.696 36.065 36.6655 35.6485 35.5947 35.6571C35.4981 35.6571 35.3528 35.6569 23.0256 38.3588L11.1193 35.7132C11.1037 35.7095 11.0878 35.7067 11.0715 35.7042C10.4839 35.616 9.88408 35.6555 9.31305 35.82C8.74203 35.9845 8.21318 36.2702 7.76252 36.6575C7.3295 37.0288 6.98165 37.4891 6.74273 38.007C6.5038 38.5249 6.37941 39.0883 6.37805 39.6587C6.37763 40.2978 6.5062 40.9305 6.75606 41.5187C7.00592 42.107 7.37193 42.6388 7.83216 43.0823C8.76485 43.9907 10.0171 44.4962 11.319 44.49H34.7301C36.0255 44.5029 37.2732 44.0015 38.1994 43.0958C39.1257 42.1901 39.6549 40.954 39.671 39.6587ZM8.781 42.1092C8.45099 41.7921 8.18842 41.4115 8.00901 40.9905C7.82961 40.5694 7.73707 40.1164 7.73695 39.6587C7.73838 39.2836 7.82071 38.9132 7.97834 38.5729C8.13596 38.2325 8.36516 37.9302 8.65029 37.6865C9.15315 37.254 9.79477 37.0166 10.4581 37.0178C10.589 37.0179 10.7198 37.027 10.8495 37.0452L22.8772 39.7179C22.9737 39.7391 23.0736 39.7393 23.1702 39.7184C27.8729 38.6874 34.9594 37.1427 35.6444 37.0165C36.3464 37.0202 37.0189 37.299 37.5177 37.793C38.0165 38.287 38.3017 38.9568 38.3121 39.6587C38.2963 40.5937 37.9103 41.4843 37.2388 42.1353C36.5674 42.7862 35.6652 43.1443 34.7301 43.1311H11.319C10.3717 43.1365 9.46024 42.7695 8.781 42.1092Z" fill="#0EA47A"/>
<path d="M29.4827 27.6661L34.5194 29.1461C34.6471 29.1837 34.7795 29.203 34.9126 29.2031C35.1184 29.2024 35.3214 29.1551 35.5064 29.0648C35.6914 28.9745 35.8535 28.8436 35.9807 28.6817C36.1079 28.5199 36.1968 28.3313 36.2407 28.1303C36.2847 27.9292 36.2827 27.7207 36.2347 27.5206L33.7866 17.4995C33.7096 17.1139 33.5266 16.7574 33.258 16.4702C32.9895 16.183 32.646 15.9764 32.2664 15.8738L29.1602 15.0829C28.4134 14.8708 27.7386 14.4595 27.2079 13.893C27.1738 13.9293 27.1413 13.967 27.1066 14.0029C26.8275 14.2914 26.5265 14.5578 26.2063 14.7998C26.9145 15.5649 27.821 16.1187 28.8251 16.3997L31.9314 17.1908C32.0719 17.2366 32.1968 17.3209 32.2918 17.4342C32.3869 17.5475 32.4482 17.6852 32.4688 17.8316L34.9023 27.8422L23.704 24.5518V20.2424L25.6033 23.1016C25.6856 23.2257 25.8064 23.3193 25.947 23.3679L30.2762 24.8655C30.4464 24.924 30.6329 24.9127 30.7947 24.8339C30.9566 24.7551 31.0805 24.6153 31.1394 24.4452C31.1983 24.2751 31.1873 24.0886 31.1088 23.9266C31.0303 23.7646 30.8907 23.6404 30.7208 23.5812L26.6082 22.1586L23.5905 17.6156C23.5871 17.6105 23.5819 17.6075 23.5784 17.6025C23.5547 17.5721 23.5284 17.5437 23.4998 17.5178C23.4586 17.4647 23.4037 17.4239 23.341 17.3998C23.3079 17.3799 23.2732 17.3629 23.2372 17.349C23.2313 17.3471 23.2269 17.3429 23.2209 17.3411C23.1935 17.3356 23.1658 17.332 23.1379 17.3301C23.0638 17.3102 22.9858 17.3102 22.9118 17.3301C22.8837 17.3319 22.8558 17.3356 22.8281 17.3411C22.8222 17.3429 22.8177 17.3471 22.8118 17.3491C22.7766 17.3628 22.7426 17.3794 22.7102 17.3987C22.6473 17.4227 22.5921 17.4634 22.5507 17.5164C22.5216 17.5427 22.4948 17.5715 22.4707 17.6025C22.4672 17.6075 22.462 17.6105 22.4586 17.6156L19.4409 22.1586L15.3283 23.5812C15.1583 23.6404 15.0188 23.7646 14.9403 23.9266C14.8618 24.0886 14.8508 24.2751 14.9097 24.4452C14.9686 24.6153 15.0925 24.7551 15.2544 24.8339C15.4162 24.9127 15.6027 24.924 15.7729 24.8655L20.1021 23.3679C20.2427 23.3193 20.3635 23.2257 20.4458 23.1017L22.3451 20.2424V24.5517L11.1349 27.8431L13.5776 17.8412C13.5977 17.6931 13.6589 17.5535 13.7544 17.4385C13.8499 17.3234 13.9758 17.2376 14.1177 17.1906L17.224 16.3997C18.2296 16.1182 19.1373 15.5631 19.8461 14.7962C19.6131 14.6205 19.3902 14.4318 19.1784 14.2311C19.0629 14.1208 18.9564 14.0027 18.8468 13.8872C18.3152 14.4566 17.6382 14.87 16.8889 15.0829L13.7827 15.8737C13.4016 15.9773 13.0571 16.1853 12.7881 16.4743C12.519 16.7632 12.336 17.1217 12.2599 17.5091L9.81444 27.5207C9.75668 27.7521 9.76161 27.9948 9.82872 28.2236C9.89583 28.4525 10.0227 28.6594 10.1963 28.8229C10.3698 28.9904 10.5848 29.1086 10.8191 29.1654C11.0535 29.2222 11.2987 29.2155 11.5296 29.1461L16.5664 27.6661L17.2525 29.9474C17.3924 30.4139 17.4191 30.907 17.3302 31.3858C17.2413 31.8647 17.0396 32.3154 16.7416 32.7006L14.8088 35.141L16.2826 35.4685L17.8102 33.5396C18.2425 32.9829 18.5355 32.3309 18.6648 31.638C18.7942 30.9451 18.7561 30.2313 18.5537 29.5561L17.8701 27.2831L23.0245 25.7685L28.179 27.2831L27.4954 29.5563C27.293 30.2324 27.2552 30.9472 27.3851 31.6409C27.5151 32.3346 27.8091 32.9872 28.2425 33.5443L29.784 35.4907C30.3258 35.3729 30.8209 35.2654 31.263 35.1697L29.3111 32.7052C29.012 32.3197 28.8093 31.8684 28.7198 31.3888C28.6303 30.9091 28.6566 30.415 28.7965 29.9476L29.4827 27.6661Z" fill="#0EA47A"/>
<path d="M22.8165 14.5887C22.8769 14.5922 22.9373 14.594 22.998 14.594C24.06 14.594 25.1654 14.0534 26.1305 13.0573C27.6247 11.5063 28.4598 9.43659 28.4601 7.28293C28.4595 7.07739 28.4505 6.86789 28.4333 6.65971C28.3467 5.3218 27.8584 4.04115 27.0323 2.98525C26.5873 2.43112 26.0359 1.97179 25.4104 1.6344C24.785 1.29701 24.0983 1.0884 23.3908 1.0209C22.6495 0.951512 21.9023 1.05545 21.208 1.32452C20.5138 1.59358 19.8917 2.02039 19.3908 2.57122C18.0441 4.01721 17.3501 6.42084 17.6636 8.55227C17.9378 10.3462 18.8007 11.998 20.1167 13.2477C20.9928 14.0838 21.9012 14.5348 22.8165 14.5887ZM20.3851 3.49717C20.7101 3.13459 21.109 2.84584 21.555 2.65035C22.0009 2.45487 22.4836 2.35718 22.9705 2.36387C23.0753 2.36387 23.1816 2.36796 23.2893 2.37614C23.8123 2.42847 24.3196 2.58504 24.7811 2.8366C25.2427 3.08817 25.6492 3.42965 25.9766 3.84088C26.6301 4.68483 27.0143 5.70607 27.079 6.77151C27.093 6.94336 27.1004 7.11544 27.1013 7.28773C27.1007 9.08697 26.4029 10.8161 25.1545 12.1118C24.7258 12.5545 23.8606 13.29 22.8962 13.2321C22.3113 13.1978 21.6915 12.8721 21.0549 12.2647C19.9579 11.2243 19.2378 9.84882 19.0079 8.35452C18.7511 6.60946 19.3048 4.65753 20.3851 3.49717Z" fill="#0EA47A"/>
<path d="M29.4785 4.85182C29.6241 5.36601 29.7227 5.89236 29.7731 6.4244C32.3656 7.49362 34.6659 9.16539 36.4834 11.3011C38.3008 13.4368 39.583 15.975 40.2236 18.7052C40.8643 21.4353 40.845 24.2789 40.1673 27.0001C39.4895 29.7213 38.173 32.2418 36.3267 34.3527C36.8244 34.418 37.3106 34.5517 37.7716 34.7502C39.6923 32.3951 41.0203 29.6137 41.6442 26.6394C42.2682 23.6652 42.1699 20.5846 41.3576 17.6562C40.5453 14.7277 39.0427 12.0367 36.9758 9.8088C34.9088 7.5809 32.3379 5.88106 29.4785 4.85182Z" fill="#0EA47A"/>
<path d="M4.00001 22.7475C3.99629 27.1229 5.50807 31.3645 8.27831 34.7512C8.73947 34.5528 9.22584 34.4191 9.72361 34.3539C7.87579 32.2418 6.55842 29.7194 5.88087 26.9961C5.20332 24.2728 5.18514 21.4272 5.82782 18.6954C6.47051 15.9637 7.75553 13.4246 9.5762 11.2891C11.3969 9.15351 13.7007 7.48303 16.2964 6.41632C16.3619 5.87958 16.4734 5.34945 16.6296 4.83179C12.9363 6.1547 9.74127 8.58535 7.48086 11.7918C5.22045 14.9983 4.00484 18.8244 4.00001 22.7475Z" fill="#0EA47A"/>
</svg>
