<svg width="209" height="84" viewBox="0 0 209 84" fill="none" xmlns="http://www.w3.org/2000/svg">
<path d="M53.9331 56.589C53.9231 55.6372 53.5361 54.7283 52.8568 54.0614C52.1775 53.3946 51.2615 53.0245 50.3097 53.0321C50.2239 53.0321 50.0947 53.032 39.1371 55.4336L28.5538 53.0819C28.5399 53.0787 28.5258 53.0762 28.5113 53.074C27.989 52.9956 27.4558 53.0307 26.9482 53.1769C26.4407 53.3231 25.9706 53.5771 25.57 53.9214C25.1851 54.2514 24.8759 54.6605 24.6635 55.1209C24.4511 55.5813 24.3406 56.082 24.3394 56.589C24.339 57.1572 24.4533 57.7195 24.6754 58.2424C24.8975 58.7653 25.2228 59.2381 25.6319 59.6323C26.4609 60.4397 27.574 60.8891 28.7313 60.8835H49.5412C50.6927 60.895 51.8017 60.4494 52.625 59.6443C53.4483 58.8392 53.9188 57.7405 53.9331 56.589ZM26.4753 58.7673C26.182 58.4854 25.9486 58.1472 25.7891 57.7729C25.6296 57.3986 25.5474 56.9959 25.5473 56.589C25.5485 56.2556 25.6217 55.9264 25.7618 55.6239C25.9019 55.3214 26.1057 55.0526 26.3591 54.836C26.8061 54.4515 27.3764 54.2406 27.966 54.2416C28.0825 54.2417 28.1987 54.2498 28.314 54.266L39.0053 56.6417C39.0911 56.6606 39.1799 56.6607 39.2657 56.6421C43.4459 55.7257 49.745 54.3527 50.3539 54.2404C50.9779 54.2438 51.5757 54.4915 52.019 54.9306C52.4624 55.3697 52.7159 55.9651 52.7252 56.589C52.7111 57.4202 52.368 58.2119 51.7712 58.7904C51.1743 59.369 50.3724 59.6874 49.5412 59.6756H28.7313C27.8893 59.6804 27.0791 59.3542 26.4753 58.7673Z" fill="#0EA47A"/>
<path d="M44.8768 45.9288L49.3539 47.2443C49.4674 47.2778 49.5851 47.2949 49.7034 47.2951C49.8864 47.2944 50.0668 47.2524 50.2312 47.1721C50.3956 47.0919 50.5398 46.9754 50.6528 46.8316C50.7659 46.6877 50.8449 46.5201 50.884 46.3414C50.9231 46.1627 50.9212 45.9774 50.8786 45.7995L48.7025 36.8918C48.6341 36.5491 48.4714 36.2322 48.2327 35.9769C47.9939 35.7216 47.6887 35.538 47.3513 35.4468L44.5901 34.7438C43.9264 34.5552 43.3265 34.1896 42.8547 33.686C42.8244 33.7183 42.7956 33.7519 42.7647 33.7837C42.5166 34.0402 42.2491 34.277 41.9645 34.4921C42.594 35.1722 43.3998 35.6645 44.2923 35.9142L47.0534 36.6174C47.1784 36.6581 47.2894 36.7331 47.3738 36.8338C47.4583 36.9345 47.5128 37.0569 47.5311 37.187L49.6942 46.0854L39.7402 43.1606V39.3299L41.4285 41.8715C41.5016 41.9818 41.609 42.065 41.734 42.1082L45.5822 43.4394C45.7335 43.4914 45.8992 43.4813 46.0431 43.4113C46.1869 43.3412 46.2971 43.217 46.3494 43.0658C46.4018 42.9146 46.392 42.7488 46.3222 42.6048C46.2525 42.4608 46.1284 42.3504 45.9773 42.2978L42.3217 41.0333L39.6393 36.995C39.6363 36.9905 39.6317 36.9878 39.6285 36.9834C39.6074 36.9563 39.5841 36.9311 39.5587 36.9081C39.5221 36.8609 39.4732 36.8246 39.4175 36.8032C39.3881 36.7855 39.3572 36.7704 39.3253 36.7581C39.3201 36.7563 39.3161 36.7526 39.3108 36.751C39.2864 36.7462 39.2618 36.7429 39.237 36.7413C39.1712 36.7236 39.1018 36.7236 39.036 36.7412C39.011 36.7429 38.9862 36.7462 38.9617 36.751C38.9563 36.7526 38.9523 36.7564 38.9471 36.7581C38.9158 36.7703 38.8856 36.7851 38.8568 36.8023C38.8009 36.8236 38.7519 36.8597 38.715 36.9069C38.6891 36.9303 38.6654 36.9559 38.6439 36.9834C38.6408 36.9878 38.6362 36.9905 38.6331 36.995L35.9507 41.0333L32.2952 42.2978C32.1441 42.3504 32.02 42.4608 31.9503 42.6048C31.8805 42.7488 31.8707 42.9146 31.923 43.0658C31.9754 43.217 32.0856 43.3412 32.2294 43.4113C32.3733 43.4813 32.539 43.4914 32.6903 43.4394L36.5385 42.1082C36.6635 42.065 36.7709 41.9818 36.844 41.8715L38.5323 39.3299V43.1605L28.5676 46.0861L30.739 37.1956C30.7568 37.0639 30.8112 36.9398 30.8961 36.8376C30.981 36.7353 31.0929 36.659 31.2191 36.6173L33.9802 35.9142C34.8741 35.664 35.681 35.1706 36.311 34.4889C36.1039 34.3327 35.9057 34.165 35.7175 33.9866C35.6148 33.8885 35.5201 33.7836 35.4227 33.6809C34.9501 34.187 34.3484 34.5545 33.6824 34.7438L30.9212 35.4467C30.5825 35.5387 30.2763 35.7236 30.0371 35.9805C29.798 36.2374 29.6353 36.556 29.5676 36.9004L27.3939 45.7996C27.3426 46.0053 27.347 46.221 27.4066 46.4244C27.4663 46.6278 27.579 46.8117 27.7333 46.9571C27.8876 47.1059 28.0787 47.211 28.287 47.2615C28.4953 47.312 28.7133 47.3061 28.9185 47.2443L33.3957 45.9288L34.0056 47.9567C34.1299 48.3713 34.1536 48.8096 34.0746 49.2352C33.9956 49.6609 33.8163 50.0615 33.5514 50.4039L31.8334 52.5732L33.1434 52.8643L34.5013 51.1497C34.8855 50.6548 35.146 50.0753 35.2609 49.4594C35.3759 48.8435 35.342 48.209 35.1621 47.6088L34.5545 45.5883L39.1362 44.2421L43.718 45.5883L43.1103 47.609C42.9304 48.21 42.8968 48.8453 43.0123 49.462C43.1278 50.0786 43.3891 50.6587 43.7744 51.1538L45.1447 52.884C45.6262 52.7793 46.0663 52.6837 46.4593 52.5987L44.7243 50.408C44.4584 50.0654 44.2782 49.6642 44.1986 49.2378C44.1191 48.8115 44.1425 48.3723 44.2669 47.9568L44.8768 45.9288Z" fill="#0EA47A"/>
<path d="M38.9513 34.3044C39.005 34.3075 39.0587 34.3092 39.1127 34.3092C40.0566 34.3092 41.0392 33.8286 41.8971 32.9432C43.2253 31.5645 43.9675 29.7248 43.9679 27.8104C43.9673 27.6277 43.9593 27.4415 43.944 27.2564C43.8671 26.0672 43.433 24.9288 42.6986 23.9903C42.3032 23.4977 41.813 23.0894 41.257 22.7895C40.7011 22.4896 40.0906 22.3042 39.4618 22.2442C38.8029 22.1825 38.1386 22.2749 37.5216 22.514C36.9045 22.7532 36.3515 23.1326 35.9062 23.6222C34.7092 24.9075 34.0923 27.0441 34.371 28.9387C34.6146 30.5333 35.3817 32.0016 36.5514 33.1124C37.3303 33.8556 38.1377 34.2565 38.9513 34.3044ZM36.79 24.4453C37.0789 24.123 37.4335 23.8663 37.8299 23.6926C38.2264 23.5188 38.6554 23.432 39.0882 23.4379C39.1814 23.4379 39.2758 23.4416 39.3716 23.4488C39.8365 23.4953 40.2874 23.6345 40.6977 23.8581C41.1079 24.0817 41.4692 24.3853 41.7603 24.7508C42.3412 25.501 42.6827 26.4088 42.7402 27.3558C42.7526 27.5086 42.7592 27.6615 42.76 27.8147C42.7595 29.414 42.1393 30.951 41.0295 32.1027C40.6485 32.4962 39.8794 33.15 39.0221 33.0986C38.5022 33.0681 37.9513 32.7786 37.3854 32.2386C36.4103 31.3139 35.7703 30.0912 35.5659 28.7629C35.3376 27.2118 35.8298 25.4767 36.79 24.4453Z" fill="#0EA47A"/>
<path d="M44.873 25.6494C45.0025 26.1065 45.0902 26.5744 45.135 27.0473C47.4394 27.9977 49.4841 29.4837 51.0996 31.3821C52.7151 33.2805 53.8548 35.5367 54.4243 37.9635C54.9938 40.3903 54.9766 42.9179 54.3742 45.3368C53.7718 47.7557 52.6015 49.9961 50.9604 51.8724C51.4027 51.9304 51.835 52.0494 52.2448 52.2258C53.952 50.1323 55.1325 47.66 55.6871 45.0162C56.2417 42.3724 56.1543 39.6341 55.4323 37.0311C54.7102 34.428 53.3746 32.036 51.5373 30.0556C49.7001 28.0753 47.4148 26.5643 44.873 25.6494Z" fill="#0EA47A"/>
<path d="M22.2255 41.5567C22.2222 45.4459 23.566 49.2162 26.0285 52.2266C26.4384 52.0503 26.8707 51.9315 27.3132 51.8735C25.6707 49.9961 24.4997 47.7539 23.8974 45.3332C23.2951 42.9125 23.279 40.383 23.8503 37.9548C24.4215 35.5266 25.5638 33.2697 27.1822 31.3714C28.8005 29.4731 30.8484 27.9883 33.1556 27.0401C33.2139 26.563 33.313 26.0917 33.4519 25.6316C30.1689 26.8075 27.3289 28.9681 25.3196 31.8183C23.3104 34.6685 22.2298 38.0694 22.2255 41.5567Z" fill="#0EA47A"/>
<path d="M68.6477 42.0891C67.5018 41.546 66.6344 40.8153 66.0704 39.9169C65.6381 39.2253 65.4101 38.4138 65.4101 37.5692C65.4101 36.0057 66.2259 34.5057 67.6485 33.4546C68.942 32.5188 70.6138 32.0049 72.3593 32.0049C74.9176 32.0049 76.7783 33.2096 78.1373 34.0896L78.2019 34.1315C78.5993 34.4075 78.863 34.808 78.9567 35.2677C79.0529 35.7394 78.9576 36.2123 78.6882 36.5992C78.4483 36.9846 78.0525 37.2622 77.5865 37.3626C77.1171 37.4627 76.6377 37.3715 76.236 37.1037C74.9513 36.2474 73.7731 35.5386 72.3592 35.5386C71.3773 35.5386 70.4296 35.8238 69.7584 36.3211C69.2345 36.7092 68.9687 37.1291 68.9687 37.5694C68.9687 37.8198 69.0088 37.9332 69.0787 38.0448C69.1371 38.1383 69.2883 38.3321 69.6439 38.5779C70.2564 39.0022 71.3444 39.3832 72.6326 39.6253H72.6416C72.8945 39.6253 73.0997 39.8305 73.0997 40.0834C73.0997 40.3364 72.8945 40.5416 72.6416 40.5416H72.5902C72.5623 40.5416 72.5343 40.5391 72.5068 40.5341C71.0567 40.2656 69.8547 39.8385 69.1223 39.3313C68.7482 39.0725 68.4722 38.8028 68.3019 38.5304C68.1269 38.2507 68.0525 37.9634 68.0525 37.5694C68.0525 37.0562 68.2536 36.2952 69.213 35.5846C70.0384 34.9729 71.1852 34.6222 72.3592 34.6222C74.0297 34.6222 75.3334 35.4009 76.7443 36.3413C76.9381 36.4708 77.1688 36.5152 77.3933 36.4669C77.6151 36.419 77.8034 36.287 77.9232 36.0951C78.0607 35.8967 78.1042 35.6747 78.0586 35.4511C78.0128 35.2266 77.8788 35.023 77.6912 34.8926L77.639 34.8592C76.376 34.0416 74.6464 32.9217 72.359 32.9217C70.8049 32.9217 69.3237 33.374 68.1895 34.195C67.0069 35.069 66.3266 36.3001 66.3266 37.5701C66.3266 38.2427 66.5064 38.8862 66.8468 39.4312C67.3164 40.1778 68.0545 40.794 69.0406 41.2611C69.8706 41.6543 70.9038 41.9672 72.1979 42.2176H72.2054C72.2336 42.2176 72.2618 42.2203 72.2893 42.2254C73.8569 42.5177 75.1645 42.9696 75.9717 43.4984C76.3783 43.7696 76.6752 44.0688 76.8832 44.4159C77.0907 44.7616 77.1794 45.0777 77.1794 45.4725C77.1794 46.0523 76.9553 46.9075 75.8889 47.6894C74.9895 48.3491 73.7218 48.7273 72.4108 48.7273C72.1579 48.7273 71.9527 48.5221 71.9527 48.2692C71.9527 48.0163 72.1579 47.811 72.4108 47.811C73.531 47.811 74.6012 47.4974 75.3471 46.9503C75.9549 46.5047 76.263 46.0074 76.263 45.4724C76.263 45.244 76.2195 45.091 76.0974 44.8869C75.9585 44.6558 75.7581 44.4574 75.4662 44.2624C74.7785 43.812 73.5749 43.4006 72.1626 43.1337H72.1541C72.1253 43.1337 72.0964 43.1309 72.068 43.1254C70.6767 42.8592 69.558 42.5203 68.6477 42.0891ZM79.1369 43.0494C79.5783 43.7557 79.8216 44.6165 79.8216 45.4724C79.8216 47.1392 78.9479 48.7244 77.4247 49.8212C76.066 50.8191 74.2842 51.3701 72.4101 51.3701C69.5009 51.3431 67.0785 49.9063 65.5583 48.7056C64.8038 48.0882 64.6791 46.9634 65.2743 46.1929C65.9054 45.4218 67.035 45.313 67.8002 45.9389C68.1516 46.2264 68.5624 46.5093 68.988 46.757C69.519 47.0664 70.0558 47.3139 70.5845 47.4925C70.8244 47.5734 70.9526 47.8336 70.8718 48.0733C70.7909 48.3129 70.5304 48.4421 70.2911 48.3605C69.7044 48.1621 69.1108 47.8888 68.527 47.5486C68.0604 47.2771 67.6081 46.9656 67.2201 46.6478C66.8522 46.3463 66.2896 46.3993 65.9918 46.7631C65.7097 47.128 65.7707 47.6952 66.1326 47.9912C67.5349 49.0982 69.7693 50.4289 72.4151 50.4535C74.0911 50.4535 75.6803 49.9658 76.8865 49.0799C78.1709 48.1548 78.9059 46.8408 78.9059 45.4722C78.9059 44.7858 78.7119 44.0977 78.3598 43.5339C77.8791 42.7609 77.1014 42.12 75.9817 41.5736C75.4928 41.341 74.9439 41.1374 74.3081 40.952C74.0653 40.8815 73.9255 40.6272 73.9965 40.3841C74.0671 40.1413 74.3212 40.0013 74.5645 40.0725C75.2478 40.2714 75.8412 40.4925 76.379 40.7479C77.6626 41.374 78.5629 42.1264 79.1369 43.0494ZM97.5662 48.8522C97.9123 49.8561 97.4216 50.9214 96.4531 51.2887C96.2214 51.381 95.9461 51.3954 95.8029 51.3954C95.0238 51.3954 94.3248 50.9134 94.0639 50.1959L92.9203 47.1619H87.3193L86.1738 50.201C85.8753 50.9316 85.1851 51.3957 84.411 51.3957C84.1853 51.3957 83.9844 51.3638 83.7787 51.2953C82.7922 50.9215 82.3013 49.8562 82.6435 48.864L88.3178 33.7402C88.6191 33.0035 89.3545 32.5242 90.107 32.5446C90.8765 32.515 91.5901 32.9929 91.8907 33.7276L93.6178 38.3296C93.7067 38.5665 93.5866 38.8304 93.3498 38.9193C93.1127 39.0082 92.8488 38.8881 92.7599 38.6513L91.0378 34.0617C90.8832 33.6844 90.5249 33.4399 90.1268 33.4605C90.1133 33.4612 90.0997 33.4608 90.086 33.4605C89.7098 33.4429 89.3236 33.7013 89.171 34.0745L83.5054 49.1746C83.3299 49.6841 83.583 50.2421 84.0856 50.4327C84.1789 50.4634 84.2847 50.4799 84.4105 50.4799C84.811 50.4799 85.1681 50.2391 85.3207 49.8664L86.5734 46.5427C86.6407 46.3643 86.8114 46.246 87.0022 46.246H93.2371C93.4279 46.246 93.5988 46.3643 93.666 46.5427L94.9232 49.8786C95.0547 50.2403 95.4075 50.4799 95.8029 50.4799C95.9554 50.4799 96.0695 50.4561 96.1206 50.4357C96.6308 50.2419 96.884 49.684 96.7041 49.1631L93.4546 40.503C93.3657 40.2661 93.4857 40.0022 93.7226 39.9133C93.9597 39.8242 94.2236 39.9444 94.3125 40.1813L97.5662 48.8522ZM88.7241 42.0357C88.961 42.1248 89.0806 42.3892 88.9915 42.6261L88.6909 43.4233H91.5233L90.1071 39.6647L89.6615 40.8475C89.5722 41.0841 89.3081 41.2032 89.0712 41.1148C88.8343 41.0257 88.7145 40.7611 88.8038 40.5245L89.678 38.2036C89.7454 38.0251 89.9161 37.9069 90.1069 37.9069C90.2977 37.9069 90.4686 38.0251 90.5357 38.2036L92.614 43.7199C92.6669 43.8606 92.6477 44.0184 92.562 44.1421C92.4763 44.2658 92.3357 44.3396 92.1851 44.3396H88.0286C87.8781 44.3396 87.7372 44.2658 87.6517 44.1421C87.5663 44.0184 87.5468 43.8606 87.5997 43.7199L88.1337 42.3028C88.2229 42.0657 88.4873 41.9461 88.7241 42.0357ZM106.702 42.8851L109.366 46.3759C109.52 46.5773 109.481 46.8648 109.28 47.0183C109.079 47.1718 108.791 47.133 108.638 46.9321L106.294 43.8616L104.127 46.0703V49.5264C104.127 50.5573 103.289 51.3957 102.258 51.3957C101.227 51.3957 100.389 50.5573 100.389 49.5264V34.5162C100.389 33.4853 101.227 32.6469 102.258 32.6469C103.289 32.6469 104.127 33.4853 104.127 34.5162C104.127 34.7691 103.922 34.9744 103.669 34.9744C103.416 34.9744 103.211 34.7691 103.211 34.5162C103.211 33.9996 102.775 33.5632 102.258 33.5632C101.741 33.5632 101.305 33.9996 101.305 34.5162V49.5264C101.305 50.0519 101.732 50.4794 102.258 50.4794C102.783 50.4794 103.211 50.0519 103.211 49.5264V45.883C103.211 45.7632 103.258 45.6479 103.342 45.5623L106.01 42.8426C106.103 42.7478 106.23 42.6972 106.366 42.7061C106.499 42.7143 106.621 42.7795 106.702 42.8851ZM108.947 41.2032L114.39 48.3391C114.709 48.7118 114.859 49.1862 114.813 49.6777C114.767 50.1746 114.516 50.6387 114.125 50.9535C113.799 51.2426 113.386 51.3954 112.931 51.3954C112.404 51.3954 111.893 51.1494 111.53 50.7203C111.525 50.7143 111.52 50.7081 111.515 50.7022L109.599 48.1909C109.445 47.9896 109.484 47.702 109.685 47.5486C109.886 47.3949 110.174 47.4333 110.327 47.6347L112.236 50.1361C112.424 50.3542 112.677 50.4791 112.931 50.4791C113.168 50.4791 113.361 50.4085 113.523 50.2633C113.53 50.2566 113.538 50.2502 113.545 50.2442C113.748 50.0839 113.878 49.8463 113.901 49.5927C113.924 49.348 113.849 49.1123 113.689 48.9288C113.683 48.9213 113.676 48.9137 113.671 48.9059L107.975 41.4394C107.835 41.2566 107.853 40.9989 108.016 40.8369L113.661 35.2177C114.021 34.84 114.024 34.2297 113.66 33.8652C113.287 33.4922 112.68 33.4918 112.307 33.8652L103.994 42.2034C103.863 42.3349 103.666 42.3739 103.495 42.3035C103.323 42.2325 103.212 42.0655 103.212 41.88V36.9122C103.212 36.6593 103.417 36.454 103.67 36.454C103.923 36.454 104.128 36.6593 104.128 36.9122V40.7714L111.659 33.2177C112.019 32.8573 112.489 32.6594 112.983 32.6594C113.478 32.6594 113.949 32.8576 114.308 33.2172C115.022 33.9304 115.025 35.1155 114.315 35.8586L108.947 41.2032ZM121.287 42.0891C120.142 41.546 119.274 40.8153 118.71 39.9169C118.278 39.2253 118.05 38.4138 118.05 37.5692C118.05 36.0057 118.866 34.5057 120.288 33.4546C121.582 32.5188 123.254 32.0049 124.999 32.0049C127.557 32.0049 129.418 33.2096 130.777 34.0896L130.842 34.1315C131.239 34.4075 131.503 34.808 131.596 35.2677C131.693 35.7394 131.597 36.2123 131.328 36.5992C131.088 36.9846 130.692 37.2622 130.226 37.3626C129.757 37.4627 129.277 37.3715 128.876 37.1037C127.591 36.2474 126.413 35.5386 124.999 35.5386C124.017 35.5386 123.069 35.8238 122.398 36.3211C121.874 36.7092 121.608 37.1291 121.608 37.5694C121.608 37.8198 121.649 37.9332 121.718 38.0448C121.777 38.1383 121.928 38.3321 122.284 38.5779C122.896 39.0022 123.984 39.3832 125.272 39.6253H125.281C125.534 39.6253 125.739 39.8305 125.739 40.0834C125.739 40.3364 125.534 40.5416 125.281 40.5416H125.23C125.202 40.5416 125.174 40.5391 125.147 40.5341C123.696 40.2656 122.494 39.8385 121.762 39.3313C121.388 39.0725 121.112 38.8028 120.942 38.5304C120.767 38.2507 120.692 37.9634 120.692 37.5694C120.692 37.0562 120.893 36.2952 121.853 35.5846C122.678 34.9729 123.825 34.6222 124.999 34.6222C126.669 34.6222 127.973 35.4009 129.384 36.3413C129.578 36.4708 129.809 36.5152 130.033 36.4669C130.255 36.419 130.443 36.287 130.563 36.0951C130.7 35.8967 130.744 35.6747 130.698 35.4511C130.653 35.2266 130.519 35.023 130.331 34.8926L130.279 34.8592C129.016 34.0416 127.286 32.9217 124.999 32.9217C123.445 32.9217 121.963 33.374 120.829 34.195C119.647 35.069 118.966 36.3001 118.966 37.5701C118.966 38.2427 119.146 38.8862 119.487 39.4312C119.956 40.1778 120.694 40.794 121.68 41.2611C122.51 41.6543 123.544 41.9672 124.838 42.2176H124.845C124.873 42.2176 124.902 42.2203 124.929 42.2254C126.497 42.5177 127.804 42.9696 128.611 43.4984C129.018 43.7696 129.315 44.0688 129.523 44.4159C129.73 44.7616 129.819 45.0777 129.819 45.4725C129.819 46.0523 129.595 46.9075 128.529 47.6894C127.629 48.3491 126.362 48.7273 125.051 48.7273C124.798 48.7273 124.592 48.5221 124.592 48.2692C124.592 48.0163 124.798 47.811 125.051 47.811C126.171 47.811 127.241 47.4974 127.987 46.9503C128.595 46.5047 128.903 46.0074 128.903 45.4724C128.903 45.244 128.859 45.091 128.737 44.8869C128.598 44.6558 128.398 44.4574 128.106 44.2624C127.418 43.812 126.215 43.4006 124.802 43.1337H124.794C124.765 43.1337 124.736 43.1309 124.708 43.1254C123.316 42.8592 122.198 42.5203 121.287 42.0891ZM131.777 43.0494C132.218 43.7557 132.461 44.6165 132.461 45.4724C132.461 47.1392 131.588 48.7244 130.064 49.8212C128.706 50.8191 126.924 51.3701 125.05 51.3701C122.141 51.3431 119.718 49.9063 118.198 48.7056C117.444 48.0882 117.319 46.9634 117.914 46.1929C118.545 45.4218 119.675 45.313 120.44 45.9389C120.791 46.2264 121.202 46.5093 121.628 46.757C122.159 47.0664 122.696 47.3139 123.224 47.4925C123.464 47.5734 123.592 47.8336 123.512 48.0733C123.431 48.3129 123.17 48.4421 122.931 48.3605C122.344 48.1621 121.751 47.8888 121.167 47.5486C120.7 47.2771 120.248 46.9656 119.86 46.6478C119.492 46.3463 118.929 46.3993 118.632 46.7631C118.349 47.128 118.41 47.6952 118.772 47.9912C120.175 49.0982 122.409 50.4289 125.055 50.4535C126.731 50.4535 128.32 49.9658 129.526 49.0799C130.811 48.1548 131.546 46.8408 131.546 45.4722C131.546 44.7858 131.352 44.0977 131 43.5339C130.519 42.7609 129.741 42.12 128.621 41.5736C128.133 41.341 127.584 41.1374 126.948 40.952C126.705 40.8815 126.565 40.6272 126.636 40.3841C126.707 40.1413 126.961 40.0013 127.204 40.0725C127.888 40.2714 128.481 40.4925 129.019 40.7479C130.302 41.374 131.203 42.1264 131.777 43.0494ZM147.974 47.0796C148.227 47.0796 148.432 47.2846 148.432 47.5375V49.526C148.432 50.5743 147.6 51.3953 146.538 51.3953C145.489 51.3953 144.668 50.5742 144.668 49.526V43.8262H138.939V49.526C138.939 50.5743 138.107 51.3953 137.044 51.3953C135.996 51.3953 135.175 50.5742 135.175 49.526V34.388C135.175 33.3396 135.996 32.5187 137.044 32.5187C138.107 32.5187 138.939 33.3397 138.939 34.388V40.0877H140.84C141.093 40.0877 141.298 40.293 141.298 40.5459C141.298 40.7988 141.093 41.0041 140.84 41.0041H138.481C138.228 41.0041 138.023 40.7988 138.023 40.5459V34.388C138.023 33.8536 137.593 33.4351 137.044 33.4351C136.501 33.4351 136.091 33.8447 136.091 34.388V49.526C136.091 50.0694 136.501 50.479 137.044 50.479C137.593 50.479 138.023 50.0605 138.023 49.526V43.3682C138.023 43.1153 138.228 42.91 138.481 42.91H145.127C145.38 42.91 145.585 43.1153 145.585 43.3682V49.5263C145.585 50.0697 145.994 50.4793 146.538 50.4793C147.086 50.4793 147.516 50.0607 147.516 49.5263V47.5378C147.516 47.2849 147.721 47.0796 147.974 47.0796ZM146.537 32.5188C147.6 32.5188 148.432 33.3398 148.432 34.3881V45.2596C148.432 45.5125 148.227 45.7177 147.974 45.7177C147.721 45.7177 147.516 45.5125 147.516 45.2596V34.3881C147.516 33.8536 147.086 33.4351 146.537 33.4351C145.994 33.4351 145.584 33.8447 145.584 34.3881V40.5459C145.584 40.7988 145.379 41.0041 145.126 41.0041H142.44C142.187 41.0041 141.982 40.7988 141.982 40.5459C141.982 40.293 142.187 40.0877 142.44 40.0877H144.668V34.388C144.668 33.3397 145.489 32.5188 146.537 32.5188ZM154.441 45.1642C154.694 45.1642 154.899 45.3694 154.899 45.6223V49.526C154.899 50.5569 154.049 51.3953 153.004 51.3953C151.955 51.3953 151.134 50.5743 151.134 49.526V39.9556C151.134 39.7027 151.34 39.4975 151.593 39.4975C151.845 39.4975 152.051 39.7027 152.051 39.9556V49.526C152.051 50.0694 152.46 50.479 153.004 50.479C153.543 50.479 153.982 50.0515 153.982 49.526V45.6223C153.982 45.3694 154.188 45.1642 154.441 45.1642ZM153.004 32.5188C154.049 32.5188 154.899 33.3572 154.899 34.3881V43.4715C154.899 43.7244 154.694 43.9297 154.441 43.9297C154.188 43.9297 153.983 43.7245 153.983 43.4715V34.3881C153.983 33.8625 153.544 33.4351 153.004 33.4351C152.461 33.4351 152.051 33.8447 152.051 34.3881V38.067C152.051 38.3199 151.846 38.5252 151.593 38.5252C151.34 38.5252 151.135 38.32 151.135 38.067V34.3881C151.135 33.3397 151.956 32.5188 153.004 32.5188ZM159.956 46.665C161.27 46.665 162.339 47.7339 162.339 49.0475C162.339 49.3107 162.295 49.5693 162.208 49.8163C162.125 50.055 161.863 50.1801 161.624 50.0972C161.386 50.0133 161.26 49.7519 161.343 49.513C161.396 49.3638 161.422 49.2071 161.422 49.0475C161.422 48.2527 160.751 47.5813 159.956 47.5813C159.162 47.5813 158.516 48.239 158.516 49.0475C158.516 49.8417 159.162 50.488 159.956 50.488C160.156 50.488 160.35 50.4485 160.532 50.3711C160.765 50.2722 161.034 50.381 161.133 50.614C161.232 50.8469 161.123 51.1157 160.89 51.2146C160.594 51.3406 160.28 51.4043 159.956 51.4043C158.657 51.4043 157.599 50.3471 157.599 49.0474C157.599 47.7338 158.657 46.665 159.956 46.665ZM180.069 48.8522C180.416 49.8561 179.925 50.9214 178.956 51.2887C178.725 51.381 178.449 51.3954 178.306 51.3954C177.527 51.3954 176.828 50.9134 176.567 50.1959L175.424 47.1619H169.822L168.677 50.201C168.379 50.9316 167.688 51.3957 166.914 51.3957C166.689 51.3957 166.488 51.3638 166.282 51.2953C165.295 50.9215 164.804 49.8562 165.147 48.864L170.821 33.7402C171.122 33.0035 171.858 32.5242 172.61 32.5446C173.38 32.515 174.093 32.9929 174.394 33.7276L176.121 38.3296C176.21 38.5665 176.09 38.8304 175.853 38.9193C175.616 39.0082 175.352 38.8881 175.263 38.6513L173.541 34.0617C173.386 33.6844 173.028 33.4399 172.63 33.4605C172.616 33.4612 172.603 33.4608 172.589 33.4605C172.213 33.4429 171.827 33.7013 171.674 34.0745L166.009 49.1746C165.833 49.6841 166.086 50.2421 166.589 50.4327C166.682 50.4634 166.788 50.4799 166.914 50.4799C167.314 50.4799 167.671 50.2391 167.824 49.8664L169.077 46.5427C169.144 46.3643 169.315 46.246 169.505 46.246H175.74C175.931 46.246 176.102 46.3643 176.169 46.5427L177.426 49.8786C177.558 50.2403 177.911 50.4799 178.306 50.4799C178.459 50.4799 178.573 50.4561 178.624 50.4357C179.134 50.2419 179.387 49.684 179.207 49.1631L175.958 40.503C175.869 40.2661 175.989 40.0022 176.226 39.9133C176.463 39.8242 176.727 39.9444 176.816 40.1813L180.069 48.8522ZM171.227 42.0357C171.464 42.1248 171.584 42.3892 171.495 42.6261L171.194 43.4233H174.027L172.61 39.6647L172.165 40.8475C172.075 41.0841 171.811 41.2032 171.574 41.1148C171.338 41.0257 171.218 40.7611 171.307 40.5245L172.181 38.2036C172.249 38.0251 172.419 37.9069 172.61 37.9069C172.801 37.9069 172.972 38.0251 173.039 38.2036L175.117 43.7199C175.17 43.8606 175.151 44.0184 175.065 44.1421C174.98 44.2658 174.839 44.3396 174.688 44.3396H170.532C170.381 44.3396 170.24 44.2658 170.155 44.1421C170.069 44.0184 170.05 43.8606 170.103 43.7199L170.637 42.3028C170.726 42.0657 170.99 41.9461 171.227 42.0357ZM186.197 45.1642C186.451 45.1642 186.656 45.3694 186.656 45.6223V49.526C186.656 50.5569 185.806 51.3953 184.761 51.3953C183.712 51.3953 182.891 50.5743 182.891 49.526V39.9556C182.891 39.7027 183.097 39.4975 183.35 39.4975C183.602 39.4975 183.808 39.7027 183.808 39.9556V49.526C183.808 50.0694 184.217 50.479 184.761 50.479C185.3 50.479 185.739 50.0515 185.739 49.526V45.6223C185.739 45.3694 185.945 45.1642 186.197 45.1642ZM184.761 32.5188C185.806 32.5188 186.656 33.3572 186.656 34.3881V43.4715C186.656 43.7244 186.451 43.9297 186.198 43.9297C185.945 43.9297 185.739 43.7245 185.739 43.4715V34.3881C185.739 33.8625 185.301 33.4351 184.761 33.4351C184.218 33.4351 183.808 33.8447 183.808 34.3881V38.067C183.808 38.3199 183.603 38.5252 183.35 38.5252C183.097 38.5252 182.891 38.32 182.891 38.067V34.3881C182.891 33.3397 183.713 32.5188 184.761 32.5188Z" fill="black"/>
</svg>
