<svg width="180" height="50" viewBox="0 0 180 50" fill="none" xmlns="http://www.w3.org/2000/svg">
<path d="M39.9331 39.589C39.9231 38.6372 39.5361 37.7283 38.8568 37.0614C38.1775 36.3946 37.2615 36.0245 36.3097 36.0321C36.2239 36.0321 36.0947 36.032 25.1371 38.4336L14.5538 36.0819C14.5399 36.0787 14.5258 36.0762 14.5113 36.074C13.989 35.9956 13.4558 36.0307 12.9482 36.1769C12.4407 36.3231 11.9706 36.5771 11.57 36.9214C11.1851 37.2514 10.8759 37.6605 10.6635 38.1209C10.4511 38.5813 10.3406 39.082 10.3394 39.589C10.339 40.1572 10.4533 40.7195 10.6754 41.2424C10.8975 41.7653 11.2228 42.2381 11.6319 42.6323C12.4609 43.4397 13.574 43.8891 14.7313 43.8835H35.5412C36.6927 43.895 37.8017 43.4494 38.625 42.6443C39.4483 41.8392 39.9188 40.7405 39.9331 39.589ZM12.4753 41.7673C12.182 41.4854 11.9486 41.1472 11.7891 40.7729C11.6296 40.3986 11.5474 39.9959 11.5473 39.589C11.5485 39.2556 11.6217 38.9264 11.7618 38.6239C11.9019 38.3214 12.1057 38.0526 12.3591 37.836C12.8061 37.4515 13.3764 37.2406 13.966 37.2416C14.0825 37.2417 14.1987 37.2498 14.314 37.266L25.0053 39.6417C25.0911 39.6606 25.1799 39.6607 25.2657 39.6421C29.4459 38.7257 35.745 37.3527 36.3539 37.2404C36.9779 37.2438 37.5757 37.4915 38.019 37.9306C38.4624 38.3697 38.7159 38.9651 38.7252 39.589C38.7111 40.4202 38.368 41.2119 37.7712 41.7904C37.1743 42.369 36.3724 42.6874 35.5412 42.6756H14.7313C13.8893 42.6804 13.0791 42.3542 12.4753 41.7673Z" fill="#0EA47A"/>
<path d="M30.8768 28.9288L35.3539 30.2443C35.4674 30.2778 35.5851 30.2949 35.7034 30.2951C35.8864 30.2944 36.0668 30.2524 36.2312 30.1721C36.3956 30.0919 36.5398 29.9754 36.6528 29.8316C36.7659 29.6877 36.8449 29.5201 36.884 29.3414C36.9231 29.1627 36.9212 28.9774 36.8786 28.7995L34.7025 19.8918C34.6341 19.5491 34.4714 19.2322 34.2327 18.9769C33.9939 18.7216 33.6887 18.538 33.3513 18.4468L30.5901 17.7438C29.9264 17.5552 29.3265 17.1896 28.8547 16.686C28.8244 16.7183 28.7956 16.7519 28.7647 16.7837C28.5166 17.0402 28.2491 17.277 27.9645 17.4921C28.594 18.1722 29.3998 18.6645 30.2923 18.9142L33.0534 19.6174C33.1784 19.6581 33.2894 19.7331 33.3738 19.8338C33.4583 19.9345 33.5128 20.0569 33.5311 20.187L35.6942 29.0854L25.7402 26.1606V22.3299L27.4285 24.8715C27.5016 24.9818 27.609 25.065 27.734 25.1082L31.5822 26.4394C31.7335 26.4914 31.8992 26.4813 32.0431 26.4113C32.1869 26.3412 32.2971 26.217 32.3494 26.0658C32.4018 25.9146 32.392 25.7488 32.3222 25.6048C32.2525 25.4608 32.1284 25.3504 31.9773 25.2978L28.3217 24.0333L25.6393 19.995C25.6363 19.9905 25.6317 19.9878 25.6285 19.9834C25.6074 19.9563 25.5841 19.9311 25.5587 19.9081C25.5221 19.8609 25.4732 19.8246 25.4175 19.8032C25.3881 19.7855 25.3572 19.7704 25.3253 19.7581C25.3201 19.7563 25.3161 19.7526 25.3108 19.751C25.2864 19.7462 25.2618 19.7429 25.237 19.7413C25.1712 19.7236 25.1018 19.7236 25.036 19.7412C25.011 19.7429 24.9862 19.7462 24.9617 19.751C24.9563 19.7526 24.9523 19.7564 24.9471 19.7581C24.9158 19.7703 24.8856 19.7851 24.8568 19.8023C24.8009 19.8236 24.7519 19.8597 24.715 19.9069C24.6891 19.9303 24.6654 19.9559 24.6439 19.9834C24.6408 19.9878 24.6362 19.9905 24.6331 19.995L21.9507 24.0333L18.2952 25.2978C18.1441 25.3504 18.02 25.4608 17.9503 25.6048C17.8805 25.7488 17.8707 25.9146 17.923 26.0658C17.9754 26.217 18.0856 26.3412 18.2294 26.4113C18.3733 26.4813 18.539 26.4914 18.6903 26.4394L22.5385 25.1082C22.6635 25.065 22.7709 24.9818 22.844 24.8715L24.5323 22.3299V26.1605L14.5676 29.0861L16.739 20.1956C16.7568 20.0639 16.8112 19.9398 16.8961 19.8376C16.981 19.7353 17.0929 19.659 17.2191 19.6173L19.9802 18.9142C20.8741 18.664 21.681 18.1706 22.311 17.4889C22.1039 17.3327 21.9057 17.165 21.7175 16.9866C21.6148 16.8885 21.5201 16.7836 21.4227 16.6809C20.9501 17.187 20.3484 17.5545 19.6824 17.7438L16.9212 18.4467C16.5825 18.5387 16.2763 18.7236 16.0371 18.9805C15.798 19.2374 15.6353 19.556 15.5676 19.9004L13.3939 28.7996C13.3426 29.0053 13.347 29.221 13.4066 29.4244C13.4663 29.6278 13.579 29.8117 13.7333 29.9571C13.8876 30.1059 14.0787 30.211 14.287 30.2615C14.4953 30.312 14.7133 30.3061 14.9185 30.2443L19.3957 28.9288L20.0056 30.9567C20.1299 31.3713 20.1536 31.8096 20.0746 32.2352C19.9956 32.6609 19.8163 33.0615 19.5514 33.4039L17.8334 35.5732L19.1434 35.8643L20.5013 34.1497C20.8855 33.6548 21.146 33.0753 21.2609 32.4594C21.3759 31.8435 21.342 31.209 21.1621 30.6088L20.5545 28.5883L25.1362 27.2421L29.718 28.5883L29.1103 30.609C28.9304 31.21 28.8968 31.8453 29.0123 32.462C29.1278 33.0786 29.3891 33.6587 29.7744 34.1538L31.1447 35.884C31.6262 35.7793 32.0663 35.6837 32.4593 35.5987L30.7243 33.408C30.4584 33.0654 30.2782 32.6642 30.1986 32.2378C30.1191 31.8115 30.1425 31.3723 30.2669 30.9568L30.8768 28.9288Z" fill="#0EA47A"/>
<path d="M24.9513 17.3044C25.005 17.3075 25.0587 17.3092 25.1127 17.3092C26.0566 17.3092 27.0392 16.8286 27.8971 15.9432C29.2253 14.5645 29.9675 12.7248 29.9679 10.8104C29.9673 10.6277 29.9593 10.4415 29.944 10.2564C29.8671 9.06719 29.433 7.92883 28.6986 6.99026C28.3032 6.4977 27.813 6.0894 27.257 5.7895C26.7011 5.48959 26.0906 5.30416 25.4618 5.24416C24.8029 5.18249 24.1386 5.27488 23.5216 5.51404C22.9045 5.75321 22.3515 6.1326 21.9062 6.62223C20.7092 7.90755 20.0923 10.0441 20.371 11.9387C20.6146 13.5333 21.3817 15.0016 22.5514 16.1124C23.3303 16.8556 24.1377 17.2565 24.9513 17.3044ZM22.79 7.44529C23.0789 7.123 23.4335 6.86633 23.8299 6.69257C24.2264 6.5188 24.6554 6.43197 25.0882 6.43792C25.1814 6.43792 25.2758 6.44155 25.3716 6.44883C25.8365 6.49534 26.2874 6.63451 26.6977 6.85812C27.1079 7.08174 27.4692 7.38527 27.7603 7.75081C28.3412 8.50099 28.6827 9.40876 28.7402 10.3558C28.7526 10.5086 28.7592 10.6615 28.76 10.8147C28.7595 12.414 28.1393 13.951 27.0295 15.1027C26.6485 15.4962 25.8794 16.15 25.0221 16.0986C24.5022 16.0681 23.9513 15.7786 23.3854 15.2386C22.4103 14.3139 21.7703 13.0912 21.5659 11.7629C21.3376 10.2118 21.8298 8.47672 22.79 7.44529Z" fill="#0EA47A"/>
<path d="M30.873 8.64942C31.0025 9.10648 31.0902 9.57435 31.135 10.0473C33.4394 10.9977 35.4841 12.4837 37.0996 14.3821C38.7151 16.2805 39.8548 18.5367 40.4243 20.9635C40.9938 23.3903 40.9766 25.9179 40.3742 28.3368C39.7718 30.7557 38.6015 32.9961 36.9604 34.8724C37.4027 34.9304 37.835 35.0494 38.2448 35.2258C39.952 33.1323 41.1325 30.66 41.6871 28.0162C42.2417 25.3724 42.1543 22.6341 41.4323 20.0311C40.7102 17.428 39.3746 15.036 37.5373 13.0556C35.7001 11.0753 33.4148 9.56431 30.873 8.64942Z" fill="#0EA47A"/>
<path d="M8.22553 24.5567C8.22223 28.4459 9.56603 32.2162 12.0285 35.2266C12.4384 35.0503 12.8707 34.9315 13.3132 34.8735C11.6707 32.9961 10.4997 30.7539 9.89741 28.3332C9.29515 25.9125 9.27898 23.383 9.85026 20.9548C10.4215 18.5266 11.5638 16.2697 13.1822 14.3714C14.8005 12.4731 16.8484 10.9883 19.1556 10.0401C19.2139 9.56296 19.313 9.09174 19.4519 8.63159C16.1689 9.80752 13.3289 11.9681 11.3196 14.8183C9.31037 17.6685 8.22983 21.0694 8.22553 24.5567Z" fill="#0EA47A"/>
<path d="M54.6477 25.0891C53.5018 24.546 52.6344 23.8153 52.0704 22.9169C51.6381 22.2253 51.4101 21.4138 51.4101 20.5692C51.4101 19.0057 52.2259 17.5057 53.6485 16.4546C54.942 15.5188 56.6138 15.0049 58.3593 15.0049C60.9176 15.0049 62.7783 16.2096 64.1373 17.0896L64.2019 17.1315C64.5993 17.4075 64.863 17.808 64.9567 18.2677C65.0529 18.7394 64.9576 19.2123 64.6882 19.5992C64.4483 19.9846 64.0525 20.2622 63.5865 20.3626C63.1171 20.4627 62.6377 20.3715 62.236 20.1037C60.9513 19.2474 59.7731 18.5386 58.3592 18.5386C57.3773 18.5386 56.4296 18.8238 55.7584 19.3211C55.2345 19.7092 54.9687 20.1291 54.9687 20.5694C54.9687 20.8198 55.0088 20.9332 55.0787 21.0448C55.1371 21.1383 55.2883 21.3321 55.6439 21.5779C56.2564 22.0022 57.3444 22.3832 58.6326 22.6253H58.6416C58.8945 22.6253 59.0997 22.8305 59.0997 23.0834C59.0997 23.3364 58.8945 23.5416 58.6416 23.5416H58.5902C58.5623 23.5416 58.5343 23.5391 58.5068 23.5341C57.0567 23.2656 55.8547 22.8385 55.1223 22.3313C54.7482 22.0725 54.4722 21.8028 54.3019 21.5304C54.1269 21.2507 54.0525 20.9634 54.0525 20.5694C54.0525 20.0562 54.2536 19.2952 55.213 18.5846C56.0384 17.9729 57.1852 17.6222 58.3592 17.6222C60.0297 17.6222 61.3334 18.4009 62.7443 19.3413C62.9381 19.4708 63.1688 19.5152 63.3933 19.4669C63.6151 19.419 63.8034 19.287 63.9232 19.0951C64.0607 18.8967 64.1042 18.6747 64.0586 18.4511C64.0128 18.2266 63.8788 18.023 63.6912 17.8926L63.639 17.8592C62.376 17.0416 60.6464 15.9217 58.359 15.9217C56.8049 15.9217 55.3237 16.374 54.1895 17.195C53.0069 18.069 52.3266 19.3001 52.3266 20.5701C52.3266 21.2427 52.5064 21.8862 52.8468 22.4312C53.3164 23.1778 54.0545 23.794 55.0406 24.2611C55.8706 24.6543 56.9038 24.9672 58.1979 25.2176H58.2054C58.2336 25.2176 58.2618 25.2203 58.2893 25.2254C59.8569 25.5177 61.1645 25.9696 61.9717 26.4984C62.3783 26.7696 62.6752 27.0688 62.8832 27.4159C63.0907 27.7616 63.1794 28.0777 63.1794 28.4725C63.1794 29.0523 62.9553 29.9075 61.8889 30.6894C60.9895 31.3491 59.7218 31.7273 58.4108 31.7273C58.1579 31.7273 57.9527 31.5221 57.9527 31.2692C57.9527 31.0163 58.1579 30.811 58.4108 30.811C59.531 30.811 60.6012 30.4974 61.3471 29.9503C61.9549 29.5047 62.263 29.0074 62.263 28.4724C62.263 28.244 62.2195 28.091 62.0974 27.8869C61.9585 27.6558 61.7581 27.4574 61.4662 27.2624C60.7785 26.812 59.5749 26.4006 58.1626 26.1337H58.1541C58.1253 26.1337 58.0964 26.1309 58.068 26.1254C56.6767 25.8592 55.558 25.5203 54.6477 25.0891ZM65.1369 26.0494C65.5783 26.7557 65.8216 27.6165 65.8216 28.4724C65.8216 30.1392 64.9479 31.7244 63.4247 32.8212C62.066 33.8191 60.2842 34.3701 58.4101 34.3701C55.5009 34.3431 53.0785 32.9063 51.5583 31.7056C50.8038 31.0882 50.6791 29.9634 51.2743 29.1929C51.9054 28.4218 53.035 28.313 53.8002 28.9389C54.1516 29.2264 54.5624 29.5093 54.988 29.757C55.519 30.0664 56.0558 30.3139 56.5845 30.4925C56.8244 30.5734 56.9526 30.8336 56.8718 31.0733C56.7909 31.3129 56.5304 31.4421 56.2911 31.3605C55.7044 31.1621 55.1108 30.8888 54.527 30.5486C54.0604 30.2771 53.6081 29.9656 53.2201 29.6478C52.8522 29.3463 52.2896 29.3993 51.9918 29.7631C51.7097 30.128 51.7707 30.6952 52.1326 30.9912C53.5349 32.0982 55.7693 33.4289 58.4151 33.4535C60.0911 33.4535 61.6803 32.9658 62.8865 32.0799C64.1709 31.1548 64.9059 29.8408 64.9059 28.4722C64.9059 27.7858 64.7119 27.0977 64.3598 26.5339C63.8791 25.7609 63.1014 25.12 61.9817 24.5736C61.4928 24.341 60.9439 24.1374 60.3081 23.952C60.0653 23.8815 59.9255 23.6272 59.9965 23.3841C60.0671 23.1413 60.3212 23.0013 60.5645 23.0725C61.2478 23.2714 61.8412 23.4925 62.379 23.7479C63.6626 24.374 64.5629 25.1264 65.1369 26.0494ZM83.5662 31.8522C83.9123 32.8561 83.4216 33.9214 82.4531 34.2887C82.2214 34.381 81.9461 34.3954 81.8029 34.3954C81.0238 34.3954 80.3248 33.9134 80.0639 33.1959L78.9203 30.1619H73.3193L72.1738 33.201C71.8753 33.9316 71.1851 34.3957 70.411 34.3957C70.1853 34.3957 69.9844 34.3638 69.7787 34.2953C68.7922 33.9215 68.3013 32.8562 68.6435 31.864L74.3178 16.7402C74.6191 16.0035 75.3545 15.5242 76.107 15.5446C76.8765 15.515 77.5901 15.9929 77.8907 16.7276L79.6178 21.3296C79.7067 21.5665 79.5866 21.8304 79.3498 21.9193C79.1127 22.0082 78.8488 21.8881 78.7599 21.6513L77.0378 17.0617C76.8832 16.6844 76.5249 16.4399 76.1268 16.4605C76.1133 16.4612 76.0997 16.4608 76.086 16.4605C75.7098 16.4429 75.3236 16.7013 75.171 17.0745L69.5054 32.1746C69.3299 32.6841 69.583 33.2421 70.0856 33.4327C70.1789 33.4634 70.2847 33.4799 70.4105 33.4799C70.811 33.4799 71.1681 33.2391 71.3207 32.8664L72.5734 29.5427C72.6407 29.3643 72.8114 29.246 73.0022 29.246H79.2371C79.4279 29.246 79.5988 29.3643 79.666 29.5427L80.9232 32.8786C81.0547 33.2403 81.4075 33.4799 81.8029 33.4799C81.9554 33.4799 82.0695 33.4561 82.1206 33.4357C82.6308 33.2419 82.884 32.684 82.7041 32.1631L79.4546 23.503C79.3657 23.2661 79.4857 23.0022 79.7226 22.9133C79.9597 22.8242 80.2236 22.9444 80.3125 23.1813L83.5662 31.8522ZM74.7241 25.0357C74.961 25.1248 75.0806 25.3892 74.9915 25.6261L74.6909 26.4233H77.5233L76.1071 22.6647L75.6615 23.8475C75.5722 24.0841 75.3081 24.2032 75.0712 24.1148C74.8343 24.0257 74.7145 23.7611 74.8038 23.5245L75.678 21.2036C75.7454 21.0251 75.9161 20.9069 76.1069 20.9069C76.2977 20.9069 76.4686 21.0251 76.5357 21.2036L78.614 26.7199C78.6669 26.8606 78.6477 27.0184 78.562 27.1421C78.4763 27.2658 78.3357 27.3396 78.1851 27.3396H74.0286C73.8781 27.3396 73.7372 27.2658 73.6517 27.1421C73.5663 27.0184 73.5468 26.8606 73.5997 26.7199L74.1337 25.3028C74.2229 25.0657 74.4873 24.9461 74.7241 25.0357ZM92.7017 25.8851L95.3663 29.3759C95.5198 29.5773 95.4813 29.8648 95.2802 30.0183C95.0786 30.1718 94.791 30.133 94.6378 29.9321L92.2942 26.8616L90.1273 29.0703V32.5264C90.1273 33.5573 89.2889 34.3957 88.258 34.3957C87.2271 34.3957 86.3887 33.5573 86.3887 32.5264V17.5162C86.3887 16.4853 87.2271 15.6469 88.258 15.6469C89.2889 15.6469 90.1273 16.4853 90.1273 17.5162C90.1273 17.7691 89.922 17.9744 89.6691 17.9744C89.4162 17.9744 89.2109 17.7691 89.2109 17.5162C89.2109 16.9996 88.7745 16.5632 88.2579 16.5632C87.7414 16.5632 87.305 16.9996 87.305 17.5162V32.5264C87.305 33.0519 87.7324 33.4794 88.2579 33.4794C88.7835 33.4794 89.2109 33.0519 89.2109 32.5264V28.883C89.2109 28.7632 89.2579 28.6479 89.342 28.5623L92.0104 25.8426C92.1034 25.7478 92.2296 25.6972 92.366 25.7061C92.4986 25.7143 92.6211 25.7795 92.7017 25.8851ZM94.9469 24.2032L100.39 31.3391C100.709 31.7118 100.859 32.1862 100.813 32.6777C100.767 33.1746 100.516 33.6387 100.125 33.9535C99.7987 34.2426 99.3863 34.3954 98.9312 34.3954C98.4038 34.3954 97.8932 34.1494 97.5296 33.7203C97.5248 33.7143 97.52 33.7081 97.5152 33.7022L95.5986 31.1909C95.4451 30.9896 95.4836 30.702 95.6848 30.5486C95.8859 30.3949 96.1736 30.4333 96.3271 30.6347L98.2361 33.1361C98.4244 33.3542 98.6773 33.4791 98.9314 33.4791C99.1681 33.4791 99.3614 33.4085 99.5227 33.2633C99.53 33.2566 99.5376 33.2502 99.5451 33.2442C99.7479 33.0839 99.8775 32.8463 99.9013 32.5927C99.924 32.348 99.8487 32.1123 99.6892 31.9288C99.6828 31.9213 99.6764 31.9137 99.6706 31.9059L93.9747 24.4394C93.8354 24.2566 93.8528 23.9989 94.0157 23.8369L99.6605 18.2177C100.021 17.84 100.024 17.2297 99.6598 16.8652C99.2866 16.4922 98.6798 16.4918 98.3066 16.8652L89.9941 25.2034C89.8628 25.3349 89.6658 25.3739 89.4947 25.3035C89.3233 25.2325 89.2115 25.0655 89.2115 24.88V19.9122C89.2115 19.6593 89.4168 19.454 89.6697 19.454C89.9226 19.454 90.1279 19.6593 90.1279 19.9122V23.7714L97.6587 16.2177C98.0186 15.8573 98.4888 15.6594 98.9834 15.6594C99.4783 15.6594 99.9486 15.8576 100.308 16.2172C101.022 16.9304 101.025 18.1155 100.315 18.8586L94.9469 24.2032ZM107.287 25.0891C106.142 24.546 105.274 23.8153 104.71 22.9169C104.278 22.2253 104.05 21.4138 104.05 20.5692C104.05 19.0057 104.866 17.5057 106.288 16.4546C107.582 15.5188 109.254 15.0049 110.999 15.0049C113.557 15.0049 115.418 16.2096 116.777 17.0896L116.842 17.1315C117.239 17.4075 117.503 17.808 117.596 18.2677C117.693 18.7394 117.597 19.2123 117.328 19.5992C117.088 19.9846 116.692 20.2622 116.226 20.3626C115.757 20.4627 115.277 20.3715 114.876 20.1037C113.591 19.2474 112.413 18.5386 110.999 18.5386C110.017 18.5386 109.069 18.8238 108.398 19.3211C107.874 19.7092 107.608 20.1291 107.608 20.5694C107.608 20.8198 107.649 20.9332 107.718 21.0448C107.777 21.1383 107.928 21.3321 108.284 21.5779C108.896 22.0022 109.984 22.3832 111.272 22.6253H111.281C111.534 22.6253 111.739 22.8305 111.739 23.0834C111.739 23.3364 111.534 23.5416 111.281 23.5416H111.23C111.202 23.5416 111.174 23.5391 111.147 23.5341C109.696 23.2656 108.494 22.8385 107.762 22.3313C107.388 22.0725 107.112 21.8028 106.942 21.5304C106.767 21.2507 106.692 20.9634 106.692 20.5694C106.692 20.0562 106.893 19.2952 107.853 18.5846C108.678 17.9729 109.825 17.6222 110.999 17.6222C112.669 17.6222 113.973 18.4009 115.384 19.3413C115.578 19.4708 115.809 19.5152 116.033 19.4669C116.255 19.419 116.443 19.287 116.563 19.0951C116.7 18.8967 116.744 18.6747 116.698 18.4511C116.653 18.2266 116.519 18.023 116.331 17.8926L116.279 17.8592C115.016 17.0416 113.286 15.9217 110.999 15.9217C109.445 15.9217 107.963 16.374 106.829 17.195C105.647 18.069 104.966 19.3001 104.966 20.5701C104.966 21.2427 105.146 21.8862 105.487 22.4312C105.956 23.1778 106.694 23.794 107.68 24.2611C108.51 24.6543 109.544 24.9672 110.838 25.2176H110.845C110.873 25.2176 110.902 25.2203 110.929 25.2254C112.497 25.5177 113.804 25.9696 114.611 26.4984C115.018 26.7696 115.315 27.0688 115.523 27.4159C115.73 27.7616 115.819 28.0777 115.819 28.4725C115.819 29.0523 115.595 29.9075 114.529 30.6894C113.629 31.3491 112.362 31.7273 111.051 31.7273C110.798 31.7273 110.592 31.5221 110.592 31.2692C110.592 31.0163 110.798 30.811 111.051 30.811C112.171 30.811 113.241 30.4974 113.987 29.9503C114.595 29.5047 114.903 29.0074 114.903 28.4724C114.903 28.244 114.859 28.091 114.737 27.8869C114.598 27.6558 114.398 27.4574 114.106 27.2624C113.418 26.812 112.215 26.4006 110.802 26.1337H110.794C110.765 26.1337 110.736 26.1309 110.708 26.1254C109.316 25.8592 108.198 25.5203 107.287 25.0891ZM117.777 26.0494C118.218 26.7557 118.461 27.6165 118.461 28.4724C118.461 30.1392 117.588 31.7244 116.064 32.8212C114.706 33.8191 112.924 34.3701 111.05 34.3701C108.141 34.3431 105.718 32.9063 104.198 31.7056C103.444 31.0882 103.319 29.9634 103.914 29.1929C104.545 28.4218 105.675 28.313 106.44 28.9389C106.791 29.2264 107.202 29.5093 107.628 29.757C108.159 30.0664 108.696 30.3139 109.224 30.4925C109.464 30.5734 109.592 30.8336 109.512 31.0733C109.431 31.3129 109.17 31.4421 108.931 31.3605C108.344 31.1621 107.751 30.8888 107.167 30.5486C106.7 30.2771 106.248 29.9656 105.86 29.6478C105.492 29.3463 104.929 29.3993 104.632 29.7631C104.349 30.128 104.41 30.6952 104.772 30.9912C106.175 32.0982 108.409 33.4289 111.055 33.4535C112.731 33.4535 114.32 32.9658 115.526 32.0799C116.811 31.1548 117.546 29.8408 117.546 28.4722C117.546 27.7858 117.352 27.0977 117 26.5339C116.519 25.7609 115.741 25.12 114.621 24.5736C114.133 24.341 113.584 24.1374 112.948 23.952C112.705 23.8815 112.565 23.6272 112.636 23.3841C112.707 23.1413 112.961 23.0013 113.204 23.0725C113.888 23.2714 114.481 23.4925 115.019 23.7479C116.302 24.374 117.203 25.1264 117.777 26.0494ZM133.974 30.0796C134.227 30.0796 134.432 30.2846 134.432 30.5375V32.526C134.432 33.5743 133.6 34.3953 132.538 34.3953C131.489 34.3953 130.668 33.5742 130.668 32.526V26.8262H124.939V32.526C124.939 33.5743 124.107 34.3953 123.044 34.3953C121.996 34.3953 121.175 33.5742 121.175 32.526V17.388C121.175 16.3396 121.996 15.5187 123.044 15.5187C124.107 15.5187 124.939 16.3397 124.939 17.388V23.0877H126.84C127.093 23.0877 127.298 23.293 127.298 23.5459C127.298 23.7988 127.093 24.0041 126.84 24.0041H124.481C124.228 24.0041 124.023 23.7988 124.023 23.5459V17.388C124.023 16.8536 123.593 16.4351 123.044 16.4351C122.501 16.4351 122.091 16.8447 122.091 17.388V32.526C122.091 33.0694 122.501 33.479 123.044 33.479C123.593 33.479 124.023 33.0605 124.023 32.526V26.3682C124.023 26.1153 124.228 25.91 124.481 25.91H131.127C131.38 25.91 131.585 26.1153 131.585 26.3682V32.5263C131.585 33.0697 131.994 33.4793 132.538 33.4793C133.086 33.4793 133.516 33.0607 133.516 32.5263V30.5378C133.516 30.2849 133.721 30.0796 133.974 30.0796ZM132.537 15.5188C133.6 15.5188 134.432 16.3398 134.432 17.3881V28.2596C134.432 28.5125 134.227 28.7177 133.974 28.7177C133.721 28.7177 133.516 28.5125 133.516 28.2596V17.3881C133.516 16.8536 133.086 16.4351 132.537 16.4351C131.994 16.4351 131.584 16.8447 131.584 17.3881V23.5459C131.584 23.7988 131.379 24.0041 131.126 24.0041H128.44C128.187 24.0041 127.982 23.7988 127.982 23.5459C127.982 23.293 128.187 23.0877 128.44 23.0877H130.668V17.388C130.668 16.3397 131.489 15.5188 132.537 15.5188ZM140.441 28.1642C140.694 28.1642 140.899 28.3694 140.899 28.6223V32.526C140.899 33.5569 140.049 34.3953 139.004 34.3953C137.955 34.3953 137.134 33.5743 137.134 32.526V22.9556C137.134 22.7027 137.34 22.4975 137.593 22.4975C137.845 22.4975 138.051 22.7027 138.051 22.9556V32.526C138.051 33.0694 138.46 33.479 139.004 33.479C139.543 33.479 139.982 33.0515 139.982 32.526V28.6223C139.982 28.3694 140.188 28.1642 140.441 28.1642ZM139.004 15.5188C140.049 15.5188 140.899 16.3572 140.899 17.3881V26.4715C140.899 26.7244 140.694 26.9297 140.441 26.9297C140.188 26.9297 139.983 26.7245 139.983 26.4715V17.3881C139.983 16.8625 139.544 16.4351 139.004 16.4351C138.461 16.4351 138.051 16.8447 138.051 17.3881V21.067C138.051 21.3199 137.846 21.5252 137.593 21.5252C137.34 21.5252 137.135 21.32 137.135 21.067V17.3881C137.135 16.3397 137.956 15.5188 139.004 15.5188ZM145.956 29.665C147.27 29.665 148.339 30.7339 148.339 32.0475C148.339 32.3107 148.295 32.5693 148.208 32.8163C148.125 33.055 147.863 33.1801 147.624 33.0972C147.386 33.0133 147.26 32.7519 147.343 32.513C147.396 32.3638 147.422 32.2071 147.422 32.0475C147.422 31.2527 146.751 30.5813 145.956 30.5813C145.162 30.5813 144.516 31.239 144.516 32.0475C144.516 32.8417 145.162 33.488 145.956 33.488C146.156 33.488 146.35 33.4485 146.532 33.3711C146.765 33.2722 147.034 33.381 147.133 33.614C147.232 33.8469 147.123 34.1157 146.89 34.2146C146.594 34.3406 146.28 34.4043 145.956 34.4043C144.657 34.4043 143.599 33.3471 143.599 32.0474C143.599 30.7338 144.657 29.665 145.956 29.665ZM166.069 31.8522C166.416 32.8561 165.925 33.9214 164.956 34.2887C164.725 34.381 164.449 34.3954 164.306 34.3954C163.527 34.3954 162.828 33.9134 162.567 33.1959L161.424 30.1619H155.822L154.677 33.201C154.379 33.9316 153.688 34.3957 152.914 34.3957C152.689 34.3957 152.488 34.3638 152.282 34.2953C151.295 33.9215 150.804 32.8562 151.147 31.864L156.821 16.7402C157.122 16.0035 157.858 15.5242 158.61 15.5446C159.38 15.515 160.093 15.9929 160.394 16.7276L162.121 21.3296C162.21 21.5665 162.09 21.8304 161.853 21.9193C161.616 22.0082 161.352 21.8881 161.263 21.6513L159.541 17.0617C159.386 16.6844 159.028 16.4399 158.63 16.4605C158.616 16.4612 158.603 16.4608 158.589 16.4605C158.213 16.4429 157.827 16.7013 157.674 17.0745L152.009 32.1746C151.833 32.6841 152.086 33.2421 152.589 33.4327C152.682 33.4634 152.788 33.4799 152.914 33.4799C153.314 33.4799 153.671 33.2391 153.824 32.8664L155.077 29.5427C155.144 29.3643 155.315 29.246 155.505 29.246H161.74C161.931 29.246 162.102 29.3643 162.169 29.5427L163.426 32.8786C163.558 33.2403 163.911 33.4799 164.306 33.4799C164.459 33.4799 164.573 33.4561 164.624 33.4357C165.134 33.2419 165.387 32.684 165.207 32.1631L161.958 23.503C161.869 23.2661 161.989 23.0022 162.226 22.9133C162.463 22.8242 162.727 22.9444 162.816 23.1813L166.069 31.8522ZM157.227 25.0357C157.464 25.1248 157.584 25.3892 157.495 25.6261L157.194 26.4233H160.027L158.61 22.6647L158.165 23.8475C158.075 24.0841 157.811 24.2032 157.574 24.1148C157.338 24.0257 157.218 23.7611 157.307 23.5245L158.181 21.2036C158.249 21.0251 158.419 20.9069 158.61 20.9069C158.801 20.9069 158.972 21.0251 159.039 21.2036L161.117 26.7199C161.17 26.8606 161.151 27.0184 161.065 27.1421C160.98 27.2658 160.839 27.3396 160.688 27.3396H156.532C156.381 27.3396 156.24 27.2658 156.155 27.1421C156.069 27.0184 156.05 26.8606 156.103 26.7199L156.637 25.3028C156.726 25.0657 156.99 24.9461 157.227 25.0357ZM172.197 28.1642C172.451 28.1642 172.656 28.3694 172.656 28.6223V32.526C172.656 33.5569 171.806 34.3953 170.761 34.3953C169.712 34.3953 168.891 33.5743 168.891 32.526V22.9556C168.891 22.7027 169.097 22.4975 169.35 22.4975C169.602 22.4975 169.808 22.7027 169.808 22.9556V32.526C169.808 33.0694 170.217 33.479 170.761 33.479C171.3 33.479 171.739 33.0515 171.739 32.526V28.6223C171.739 28.3694 171.945 28.1642 172.197 28.1642ZM170.761 15.5188C171.806 15.5188 172.656 16.3572 172.656 17.3881V26.4715C172.656 26.7244 172.451 26.9297 172.198 26.9297C171.945 26.9297 171.739 26.7245 171.739 26.4715V17.3881C171.739 16.8625 171.301 16.4351 170.761 16.4351C170.218 16.4351 169.808 16.8447 169.808 17.3881V21.067C169.808 21.3199 169.603 21.5252 169.35 21.5252C169.097 21.5252 168.891 21.32 168.891 21.067V17.3881C168.891 16.3397 169.713 15.5188 170.761 15.5188Z" fill="black"/>
</svg>
