<svg width="120" height="30" viewBox="0 0 120 30" fill="none" xmlns="http://www.w3.org/2000/svg">
<path d="M115 2C113.841 2 113 3.0519 113 4.5C113 5.9481 113.841 7 115 7C116.159 7 117 5.9481 117 4.5C117 3.0519 116.159 2 115 2Z" fill="#66BB6A"/>
<path d="M116 9.30539H112.579V17.9274C111.63 17.0756 110.512 16.4318 109.25 16.0109V15.1342C109.25 11.2929 106.889 9 102.933 9C99.7192 9 97.316 10.6112 96.3368 13.4191L96.0731 14.1768L98.8293 16.346L99.302 15.0303C99.9254 13.2953 101.08 12.4865 102.933 12.4865C104.787 12.4865 105.812 13.4389 105.812 15.3158V15.4133C105.701 15.4083 105.59 15.405 105.479 15.4034C101.798 15.3406 99.1131 16.2601 97.4982 18.132C95.8458 20.0469 95.9906 22.1979 96.0127 22.4356L96.028 22.6007H96.0434C96.3004 25.2799 98.4917 27 101.677 27C103.431 27 105.051 26.4784 106.277 25.5259L106.29 26.6962H109.25V21.2553L109.185 21.2058C108.767 20.8789 108.037 20.4564 106.939 20.3078C106.595 20.2616 106.266 20.2384 105.963 20.2451H105.81V20.7453C105.81 21.8959 104.572 23.5152 101.817 23.5152C99.7844 23.5152 99.4814 22.6023 99.4814 22.0576V22.0015C99.4967 21.7572 99.5926 21.1595 100.098 20.6032C100.74 19.8951 102.184 19.0664 105.422 19.1193C107.767 19.1588 109.566 19.8588 110.771 21.2008C112.248 22.8483 112.527 25.1033 112.577 25.9864V26.6979H115.998V9.30539H116Z" fill="#66BB6A"/>
<path d="M15.2383 20.791C15.2383 20.4355 15.1836 20.1165 15.0742 19.834C14.974 19.5423 14.7826 19.278 14.5 19.041C14.2174 18.7949 13.821 18.5534 13.3105 18.3164C12.8001 18.0794 12.1393 17.8333 11.3281 17.5781C10.4258 17.2865 9.56901 16.9583 8.75781 16.5938C7.95573 16.2292 7.24479 15.8053 6.625 15.3223C6.01432 14.8301 5.53125 14.2604 5.17578 13.6133C4.82943 12.9661 4.65625 12.2142 4.65625 11.3574C4.65625 10.528 4.83854 9.77604 5.20312 9.10156C5.56771 8.41797 6.07812 7.83464 6.73438 7.35156C7.39062 6.85938 8.16536 6.48112 9.05859 6.2168C9.96094 5.95247 10.9499 5.82031 12.0254 5.82031C13.4928 5.82031 14.7734 6.08464 15.8672 6.61328C16.9609 7.14193 17.8086 7.86654 18.4102 8.78711C19.0208 9.70768 19.3262 10.7604 19.3262 11.9453H15.252C15.252 11.362 15.1289 10.8516 14.8828 10.4141C14.6458 9.96745 14.2812 9.61654 13.7891 9.36133C13.306 9.10612 12.6953 8.97852 11.957 8.97852C11.2461 8.97852 10.6536 9.08789 10.1797 9.30664C9.70573 9.51628 9.35026 9.80339 9.11328 10.168C8.8763 10.5234 8.75781 10.9245 8.75781 11.3711C8.75781 11.7083 8.83984 12.0137 9.00391 12.2871C9.17708 12.5605 9.43229 12.8158 9.76953 13.0527C10.1068 13.2897 10.5215 13.513 11.0137 13.7227C11.5059 13.9323 12.0755 14.1374 12.7227 14.3379C13.8073 14.666 14.7598 15.0352 15.5801 15.4453C16.4095 15.8555 17.1022 16.3158 17.6582 16.8262C18.2142 17.3366 18.6335 17.9154 18.916 18.5625C19.1986 19.2096 19.3398 19.9434 19.3398 20.7637C19.3398 21.6296 19.1712 22.4043 18.834 23.0879C18.4967 23.7715 18.0091 24.3503 17.3711 24.8242C16.7331 25.2982 15.972 25.6582 15.0879 25.9043C14.2038 26.1504 13.2148 26.2734 12.1211 26.2734C11.1367 26.2734 10.166 26.1458 9.20898 25.8906C8.25195 25.6263 7.38151 25.2298 6.59766 24.7012C5.82292 24.1725 5.20312 23.498 4.73828 22.6777C4.27344 21.8574 4.04102 20.8867 4.04102 19.7656H8.15625C8.15625 20.3854 8.25195 20.9095 8.44336 21.3379C8.63477 21.7663 8.90365 22.1126 9.25 22.377C9.60547 22.6413 10.0247 22.8327 10.5078 22.9512C11 23.0697 11.5378 23.1289 12.1211 23.1289C12.832 23.1289 13.4154 23.0286 13.8711 22.8281C14.3359 22.6276 14.6777 22.3496 14.8965 21.9941C15.1243 21.6387 15.2383 21.2376 15.2383 20.791ZM29.8672 22.6641V16.0742C29.8672 15.6003 29.7897 15.1947 29.6348 14.8574C29.4798 14.5111 29.2383 14.2422 28.9102 14.0508C28.5911 13.8594 28.1764 13.7637 27.666 13.7637C27.2285 13.7637 26.8503 13.8411 26.5312 13.9961C26.2122 14.1419 25.9661 14.3561 25.793 14.6387C25.6198 14.9121 25.5332 15.2357 25.5332 15.6094H21.5957C21.5957 14.9805 21.7415 14.3835 22.0332 13.8184C22.3249 13.2533 22.7487 12.7565 23.3047 12.3281C23.8607 11.8906 24.5215 11.5488 25.2871 11.3027C26.0618 11.0566 26.9277 10.9336 27.8848 10.9336C29.0332 10.9336 30.054 11.125 30.9473 11.5078C31.8405 11.8906 32.5423 12.4648 33.0527 13.2305C33.5723 13.9961 33.832 14.9531 33.832 16.1016V22.4316C33.832 23.2428 33.8822 23.9082 33.9824 24.4277C34.0827 24.9382 34.2285 25.3848 34.4199 25.7676V26H30.4414C30.25 25.599 30.1042 25.0977 30.0039 24.4961C29.9128 23.8854 29.8672 23.2747 29.8672 22.6641ZM30.3867 16.9902L30.4141 19.2188H28.2129C27.6934 19.2188 27.2422 19.278 26.8594 19.3965C26.4766 19.515 26.1621 19.6836 25.916 19.9023C25.6699 20.112 25.4876 20.3581 25.3691 20.6406C25.2598 20.9232 25.2051 21.2331 25.2051 21.5703C25.2051 21.9076 25.2826 22.2129 25.4375 22.4863C25.5924 22.7507 25.8158 22.9603 26.1074 23.1152C26.3991 23.2611 26.7409 23.334 27.1328 23.334C27.7253 23.334 28.2402 23.2155 28.6777 22.9785C29.1152 22.7415 29.4525 22.4499 29.6895 22.1035C29.9355 21.7572 30.0632 21.429 30.0723 21.1191L31.1113 22.7871C30.9655 23.1608 30.765 23.5482 30.5098 23.9492C30.2637 24.3503 29.9492 24.7285 29.5664 25.084C29.1836 25.4303 28.7233 25.7174 28.1855 25.9453C27.6478 26.1641 27.0098 26.2734 26.2715 26.2734C25.3327 26.2734 24.4805 26.0866 23.7148 25.7129C22.9583 25.3301 22.3568 24.806 21.9102 24.1406C21.4727 23.4661 21.2539 22.7005 21.2539 21.8438C21.2539 21.069 21.3997 20.3809 21.6914 19.7793C21.9831 19.1777 22.4115 18.6719 22.9766 18.2617C23.5508 17.8424 24.2663 17.528 25.123 17.3184C25.9798 17.0996 26.9733 16.9902 28.1035 16.9902H30.3867ZM40.8047 4.98633V26H36.8672V4.98633H40.8047ZM50.1289 11.207L43.7031 18.5352L40.2578 22.0215L38.8223 19.1777L41.5566 15.7051L45.3984 11.207H50.1289ZM46.041 26L41.666 19.1641L44.3867 16.7852L50.5801 26H46.041ZM59.8223 21.9121C59.8223 21.6296 59.7402 21.3743 59.5762 21.1465C59.4121 20.9186 59.1068 20.709 58.6602 20.5176C58.2227 20.3171 57.5892 20.1348 56.7598 19.9707C56.0124 19.8066 55.3151 19.6016 54.668 19.3555C54.0299 19.1003 53.474 18.7949 53 18.4395C52.5352 18.084 52.1706 17.6647 51.9062 17.1816C51.6419 16.6895 51.5098 16.1289 51.5098 15.5C51.5098 14.8802 51.6419 14.2969 51.9062 13.75C52.1797 13.2031 52.5671 12.7201 53.0684 12.3008C53.5788 11.8724 54.1986 11.5397 54.9277 11.3027C55.666 11.0566 56.4954 10.9336 57.416 10.9336C58.7012 10.9336 59.804 11.1387 60.7246 11.5488C61.6543 11.959 62.3652 12.5241 62.8574 13.2441C63.3587 13.9551 63.6094 14.7663 63.6094 15.6777H59.6719C59.6719 15.2949 59.5898 14.9531 59.4258 14.6523C59.2708 14.3424 59.0247 14.1009 58.6875 13.9277C58.3594 13.7454 57.931 13.6543 57.4023 13.6543C56.9648 13.6543 56.5866 13.7318 56.2676 13.8867C55.9486 14.0326 55.7025 14.2331 55.5293 14.4883C55.3652 14.7344 55.2832 15.0078 55.2832 15.3086C55.2832 15.5365 55.3288 15.7415 55.4199 15.9238C55.5202 16.097 55.6797 16.2565 55.8984 16.4023C56.1172 16.5482 56.3997 16.6849 56.7461 16.8125C57.1016 16.931 57.5391 17.0404 58.0586 17.1406C59.125 17.3594 60.0775 17.6465 60.916 18.002C61.7546 18.3483 62.4199 18.8223 62.9121 19.4238C63.4043 20.0163 63.6504 20.7956 63.6504 21.7617C63.6504 22.418 63.5046 23.0195 63.2129 23.5664C62.9212 24.1133 62.502 24.5918 61.9551 25.002C61.4082 25.403 60.752 25.7174 59.9863 25.9453C59.2298 26.1641 58.3776 26.2734 57.4297 26.2734C56.0534 26.2734 54.8867 26.0273 53.9297 25.5352C52.9818 25.043 52.2617 24.4186 51.7695 23.6621C51.2865 22.8965 51.0449 22.1126 51.0449 21.3105H54.7773C54.7956 21.8483 54.9323 22.2812 55.1875 22.6094C55.4518 22.9375 55.7845 23.1745 56.1855 23.3203C56.5957 23.4661 57.0378 23.5391 57.5117 23.5391C58.0221 23.5391 58.446 23.4707 58.7832 23.334C59.1204 23.1882 59.3757 22.9967 59.5488 22.7598C59.7311 22.5137 59.8223 22.2311 59.8223 21.9121ZM70.0488 5V26H66.1113V5H70.0488ZM69.4883 18.084H68.4082C68.4173 17.054 68.554 16.1061 68.8184 15.2402C69.0827 14.3652 69.4609 13.6087 69.9531 12.9707C70.4453 12.3236 71.0332 11.8223 71.7168 11.4668C72.4095 11.1113 73.1751 10.9336 74.0137 10.9336C74.7428 10.9336 75.4036 11.0384 75.9961 11.248C76.5977 11.4486 77.1126 11.7767 77.541 12.2324C77.9785 12.679 78.3158 13.2669 78.5527 13.9961C78.7897 14.7253 78.9082 15.6094 78.9082 16.6484V26H74.9434V16.6211C74.9434 15.9648 74.8477 15.4499 74.6562 15.0762C74.474 14.6934 74.2051 14.4245 73.8496 14.2695C73.5033 14.1055 73.0749 14.0234 72.5645 14.0234C71.9993 14.0234 71.5163 14.1283 71.1152 14.3379C70.7233 14.5475 70.4089 14.8392 70.1719 15.2129C69.9349 15.5775 69.7617 16.0059 69.6523 16.498C69.543 16.9902 69.4883 17.5189 69.4883 18.084ZM86.0586 11.207V26H82.1074V11.207H86.0586ZM81.8613 7.35156C81.8613 6.77734 82.0618 6.30339 82.4629 5.92969C82.8639 5.55599 83.4017 5.36914 84.0762 5.36914C84.7415 5.36914 85.2747 5.55599 85.6758 5.92969C86.0859 6.30339 86.291 6.77734 86.291 7.35156C86.291 7.92578 86.0859 8.39974 85.6758 8.77344C85.2747 9.14714 84.7415 9.33398 84.0762 9.33398C83.4017 9.33398 82.8639 9.14714 82.4629 8.77344C82.0618 8.39974 81.8613 7.92578 81.8613 7.35156Z" fill="black"/>
<path d="M89.5039 24.0996C89.5039 23.5163 89.7044 23.0286 90.1055 22.6367C90.5156 22.2448 91.0579 22.0488 91.7324 22.0488C92.4069 22.0488 92.9447 22.2448 93.3457 22.6367C93.7559 23.0286 93.9609 23.5163 93.9609 24.0996C93.9609 24.6829 93.7559 25.1706 93.3457 25.5625C92.9447 25.9544 92.4069 26.1504 91.7324 26.1504C91.0579 26.1504 90.5156 25.9544 90.1055 25.5625C89.7044 25.1706 89.5039 24.6829 89.5039 24.0996Z" fill="#66BB6A"/>
</svg>
